<?xml version="1.0" encoding="UTF-8" standalone="no"?>
<svg
   width="108"
   height="108"
   viewBox="0 0 108 108"
   version="1.1"
   id="svg66"
   sodipodi:docname="chordstudio-app-icon.svg"
   inkscape:version="1.2.2 (b0a8486541, 2022-12-01)"
   xmlns:inkscape="http://www.inkscape.org/namespaces/inkscape"
   xmlns:sodipodi="http://sodipodi.sourceforge.net/DTD/sodipodi-0.dtd"
   xmlns:xlink="http://www.w3.org/1999/xlink"
   xmlns="http://www.w3.org/2000/svg"
   xmlns:svg="http://www.w3.org/2000/svg">
  <sodipodi:namedview
     id="namedview68"
     pagecolor="#ffffff"
     bordercolor="#000000"
     borderopacity="0.25"
     inkscape:showpageshadow="2"
     inkscape:pageopacity="0.0"
     inkscape:pagecheckerboard="0"
     inkscape:deskcolor="#d1d1d1"
     showgrid="false"
     inkscape:zoom="3.6141013"
     inkscape:cx="33.479969"
     inkscape:cy="57.967384"
     inkscape:window-width="1360"
     inkscape:window-height="718"
     inkscape:window-x="0"
     inkscape:window-y="0"
     inkscape:window-maximized="1"
     inkscape:current-layer="svg66" />
  <defs
     id="defs26">
    <linearGradient
       id="bgGrad"
       x1="18"
       y1="12"
       x2="90"
       y2="96"
       gradientUnits="userSpaceOnUse">
      <stop
         offset="0"
         stop-color="#1E293B"
         id="stop2" />
      <stop
         offset="0.55"
         stop-color="#0F766E"
         id="stop4" />
      <stop
         offset="1"
         stop-color="#14B8A6"
         id="stop6" />
    </linearGradient>
    <linearGradient
       id="ringGrad"
       x1="26"
       y1="24"
       x2="82"
       y2="84"
       gradientUnits="userSpaceOnUse">
      <stop
         offset="0"
         stop-color="#F8FAFC"
         id="stop9" />
      <stop
         offset="1"
         stop-color="#CFFAFE"
         id="stop11" />
    </linearGradient>
    <linearGradient
       id="lineGrad"
       x1="38"
       y1="30"
       x2="74"
       y2="78"
       gradientUnits="userSpaceOnUse">
      <stop
         offset="0"
         stop-color="#FDE68A"
         id="stop14" />
      <stop
         offset="1"
         stop-color="#F59E0B"
         id="stop16" />
    </linearGradient>
    <radialGradient
       id="nodeGrad"
       cx="0.35"
       cy="0.3"
       r="0.9">
      <stop
         offset="0"
         stop-color="#FEF3C7"
         id="stop19" />
      <stop
         offset="0.55"
         stop-color="#FBBF24"
         id="stop21" />
      <stop
         offset="1"
         stop-color="#D97706"
         id="stop23" />
    </radialGradient>
    <linearGradient
       inkscape:collect="always"
       xlink:href="#lineGrad"
       id="linearGradient374"
       gradientUnits="userSpaceOnUse"
       x1="38"
       y1="30"
       x2="74"
       y2="78"
       gradientTransform="translate(-2,4)" />
    <radialGradient
       inkscape:collect="always"
       xlink:href="#nodeGrad"
       id="radialGradient376"
       cx="68.2"
       cy="30.6"
       r="10.8"
       fx="68.2"
       fy="30.6"
       gradientUnits="userSpaceOnUse" />
    <radialGradient
       inkscape:collect="always"
       xlink:href="#nodeGrad"
       id="radialGradient447"
       cx="64.35"
       cy="35.8"
       r="9.8999997"
       fx="64.35"
       fy="35.8"
       gradientUnits="userSpaceOnUse" />
    <linearGradient
       inkscape:collect="always"
       xlink:href="#lineGrad"
       id="linearGradient491"
       gradientUnits="userSpaceOnUse"
       x1="38"
       y1="30"
       x2="74"
       y2="78"
       gradientTransform="rotate(-19.920044,64.783511,75.582565)" />
    <radialGradient
       inkscape:collect="always"
       xlink:href="#nodeGrad"
       id="radialGradient499"
       cx="81.35"
       cy="61.8"
       r="9.8999997"
       fx="81.35"
       fy="61.8"
       gradientUnits="userSpaceOnUse" />
    <radialGradient
       inkscape:collect="always"
       xlink:href="#nodeGrad"
       id="radialGradient501"
       cx="43.35"
       cy="79.8"
       r="9.8999997"
       fx="43.35"
       fy="79.8"
       gradientUnits="userSpaceOnUse"
       gradientTransform="matrix(1.1187524,0,0,1.1187524,-6.4126309,-6.4126309)" />
    <radialGradient
       inkscape:collect="always"
       xlink:href="#nodeGrad"
       id="radialGradient503"
       cx="45.65"
       cy="42.2"
       r="8.0999998"
       fx="45.65"
       fy="42.2"
       gradientUnits="userSpaceOnUse"
       gradientTransform="matrix(1.1187524,0,0,1.1187524,-6.4126309,-6.4126309)" />
  </defs>
  <g
     id="g30"
     transform="matrix(1.1187524,0,0,1.1187524,-6.4126309,-6.4126309)">
    <path
       d="m 54,8 c 18,0 34,8 41,23 6,13 5,29 -3,42 C 84,86 70,97 54,100 38,97 24,86 16,73 8,60 7,44 13,31 20,16 36,8 54,8 Z"
       fill="url(#bgGrad)"
       id="path28"
       style="fill:url(#bgGrad)" />
  </g>
  <g
     id="g34"
     transform="matrix(1.1187524,0,0,1.1187524,-6.4126309,-6.4126309)">
    <path
       d="m 54,22 c 12,0 22,5 28,14 -4,-3 -9,-5 -14,-5 -10,0 -19,5 -23,14 -4,9 -2,20 5,27 7,7 18,9 27,5 C 73,85 64,90 54,90 36,90 22,74 22,56 22,38 36,22 54,22 Z"
       fill="url(#ringGrad)"
       id="path32"
       style="fill:url(#ringGrad)" />
  </g>
  <g
     id="g40"
     transform="matrix(1.1187524,0,0,1.1187524,-6.4126309,-6.4126309)">
    <path
       d="m 68,37 c -3,0 -6,1 -8,2 -8,4 -14,12 -16,21 -2,8 0,15 5,20 l -6,6 C 36,79 33,68 35,58 37,46 45,35 56,29 c 4,-2 8,-3 12,-3 z"
       fill="url(#lineGrad)"
       id="path36"
       style="fill:url(#linearGradient374)" />
    <path
       d="m 53.122518,39.834135 c 6.581183,-2.38496 13.244322,-1.608704 18.708541,1.729307 5.464218,3.338012 8.789346,9.578486 8.953259,15.900917 l -8.461521,3.066376 c -0.08196,-3.161215 -1.104082,-5.981722 -3.066376,-8.461521 -3.924589,-4.959597 -9.647559,-6.076561 -15.288573,-4.032311 -3.760676,1.362834 -7.180644,3.665837 -8.979025,7.50847 L 37.303558,51.94861 c 3.338011,-5.464219 9.237777,-9.729516 15.81896,-12.114475 z"
       fill="url(#lineGrad)"
       id="path38"
       style="fill:url(#linearGradient491)" />
  </g>
  <circle
     cx="43.931229"
     cy="85.325066"
     r="6.1531382"
     fill="url(#nodeGrad)"
     id="circle48"
     style="fill:url(#radialGradient501);stroke-width:1.11875" />
  <circle
     cx="46.168732"
     cy="42.812477"
     r="5.0343857"
     fill="url(#nodeGrad)"
     id="circle50"
     style="fill:url(#radialGradient503);stroke-width:1.11875" />
  <g
     id="g433"
     transform="matrix(1.1187524,0,0,1.1187524,-7.1692533,-7.5778185)">
    <circle
       cx="70"
       cy="33"
       r="6"
       fill="url(#nodeGrad)"
       id="circle42"
       style="fill:url(#radialGradient376)" />
    <circle
       cx="70"
       cy="33"
       r="2.2"
       fill="#fff7ed"
       id="circle54" />
  </g>
  <g
     id="g443"
     transform="matrix(1.1187524,0,0,1.1187524,-7.8765636,-4.5403053)">
    <g
       id="g438">
      <circle
         cx="66"
         cy="38"
         r="5.5"
         fill="url(#nodeGrad)"
         id="circle44"
         style="fill:url(#radialGradient447)" />
      <circle
         cx="66"
         cy="38"
         r="2"
         fill="#fff7ed"
         id="circle56" />
    </g>
  </g>
  <g
     id="g520"
     transform="matrix(1.1187524,0,0,1.1187524,-13.125145,-10.887641)">
    <circle
       cx="83"
       cy="64"
       r="5.5"
       fill="url(#nodeGrad)"
       id="circle46"
       style="fill:url(#radialGradient499)" />
    <circle
       cx="83"
       cy="64"
       r="2"
       fill="#fff7ed"
       id="circle58" />
  </g>
  <circle
     cx="43.931229"
     cy="85.325066"
     r="2.237505"
     fill="#fff7ed"
     id="circle60"
     style="stroke-width:1.11875" />
  <circle
     cx="46.168732"
     cy="42.812477"
     r="1.9018792"
     fill="#fff7ed"
     id="circle62"
     style="stroke-width:1.11875" />
</svg>
